HIERARCHY
ROOT Hips
{
	OFFSET -0.001795 -0.223333 0.028219
	CHANNELS 6 Xposition Yposition Zposition Zrotation Yrotation Xrotation 
	JOINT LeftUpLeg
	{
		OFFSET 0.069520 -0.091406 -0.006815
		CHANNELS 3 Zrotation Yrotation Xrotation
		JOINT LeftLeg
		{
			OFFSET 0.034277 -0.375199 -0.004496
			CHANNELS 3 Zrotation Yrotation Xrotation
			JOINT LeftFoot
			{
				OFFSET -0.013596 -0.397961 -0.043693
				CHANNELS 3 Zrotation Yrotation Xrotation
				JOINT LeftToe
				{
					OFFSET 0.026358 -0.055791 0.119288
					CHANNELS 3 Zrotation Yrotation Xrotation
					End Site
					{
						OFFSET 0.000000 0.000000 0.000000
					}
				}
			}
		}
	}
	JOINT RightUpLeg
	{
		OFFSET -0.067670 -0.090522 -0.004320
		CHANNELS 3 Zrotation Yrotation Xrotation
		JOINT RightLeg
		{
			OFFSET -0.038290 -0.382569 -0.008850
			CHANNELS 3 Zrotation Yrotation Xrotation
			JOINT RightFoot
			{
				OFFSET 0.015774 -0.398415 -0.042312
				CHANNELS 3 Zrotation Yrotation Xrotation
				JOINT RightToe
				{
					OFFSET -0.025372 -0.048144 0.123348
					CHANNELS 3 Zrotation Yrotation Xrotation
					End Site
					{
						OFFSET 0.000000 0.000000 0.000000
					}
				}
			}
		}
	}
	JOINT Spine
	{
		OFFSET -0.002533 0.108963 -0.026696
		CHANNELS 3 Zrotation Yrotation Xrotation
		JOINT Spine1
		{
			OFFSET 0.005487 0.135180 0.001092
			CHANNELS 3 Zrotation Yrotation Xrotation
			JOINT Spine2
			{
				OFFSET 0.001457 0.052922 0.025425
				CHANNELS 3 Zrotation Yrotation Xrotation
				JOINT Neck
				{
					OFFSET -0.002778 0.213870 -0.042857
					CHANNELS 3 Zrotation Yrotation Xrotation
					JOINT Head
					{
						OFFSET 0.005152 0.064970 0.051349
						CHANNELS 3 Zrotation Yrotation Xrotation
						End Site
						{
							OFFSET 0.000000 0.000000 0.000000
						}
					}
				}
				JOINT LeftShoulder
				{
					OFFSET 0.078845 0.121749 -0.034090
					CHANNELS 3 Zrotation Yrotation Xrotation
					JOINT LeftArm
					{
						OFFSET 0.090977 0.030469 -0.008868
						CHANNELS 3 Zrotation Yrotation Xrotation
						JOINT LeftForeArm
						{
							OFFSET 0.259612 -0.012772 -0.027456
							CHANNELS 3 Zrotation Yrotation Xrotation
							JOINT LeftHand
							{
								OFFSET 0.249234 0.008986 -0.001171
								CHANNELS 3 Zrotation Yrotation Xrotation
								End Site
								{
									OFFSET 0.000000 0.000000 0.000000
								}
							}
						}
					}
				}
				JOINT RightShoulder
				{
					OFFSET -0.081759 0.118833 -0.038615
					CHANNELS 3 Zrotation Yrotation Xrotation
					JOINT RightArm
					{
						OFFSET -0.096012 0.032551 -0.009143
						CHANNELS 3 Zrotation Yrotation Xrotation
						JOINT RightForeArm
						{
							OFFSET -0.253742 -0.013329 -0.021401
							CHANNELS 3 Zrotation Yrotation Xrotation
							JOINT RightHand
							{
								OFFSET -0.255298 0.007772 -0.005559
								CHANNELS 3 Zrotation Yrotation Xrotation
								End Site
								{
									OFFSET 0.000000 0.000000 0.000000
								}
							}
						}
					}
				}
			}
		}
	}
}
MOTION
Frames: 16
Frame Time: 0.050000
0.000000 0.936428 0.000000 2.642092 22.722232 8.653645 4.828840 -0.563228 -4.907711 -7.437433 0.380878 3.593001 2.338347 8.930952 8.309795 0.000000 0.000000 0.000000 -6.848198 0.048180 -15.376076 -1.749541 0.347818 13.346105 5.187091 11.473983 2.946914 0.000000 0.000000 0.000000 7.107713 -0.918622 5.262514 3.346544 -1.397065 -1.894554 -6.342486 2.015023 8.203837 16.572725 -7.487458 -17.223961 0.000000 0.000000 0.000000 -16.800705 -11.056816 0.447670 -41.254135 -6.733100 -1.899179 -78.623663 -73.398663 60.680178 0.000000 0.000000 0.000000 18.600963 -3.601598 -0.070031 53.147786 1.847522 -4.925476 1.569132 41.293287 4.076151 0.000000 0.000000 0.000000 
0.001627 0.936442 -0.005085 2.182145 20.823011 10.017438 4.695435 -0.578132 -5.253896 -7.388316 0.376484 1.149470 3.200471 10.366476 8.703681 0.000000 0.000000 0.000000 -7.145248 0.033758 -18.087211 -1.155930 0.242363 13.855925 6.076987 12.914969 4.078887 0.000000 0.000000 0.000000 8.285115 -1.193925 6.033597 3.147676 -1.345444 -1.615766 -5.750485 0.906955 9.196523 18.287177 -8.944985 -17.060215 0.000000 0.000000 0.000000 -17.659553 -12.635255 1.762800 -41.539325 -9.801699 -1.120216 -86.084473 -76.230389 71.555091 0.000000 0.000000 0.000000 15.646381 -4.153060 -1.027798 55.391479 0.298745 -5.413114 4.401553 42.486700 5.106995 0.000000 0.000000 0.000000 
0.003219 0.936429 -0.011659 1.926388 17.308598 10.584657 4.504011 -0.596871 -5.950732 -8.147083 0.488462 1.075324 4.885985 13.047910 9.353409 0.000000 0.000000 0.000000 -5.807571 0.423062 -20.131975 -3.970760 1.056082 14.054349 7.423111 15.412761 4.885783 0.000000 0.000000 0.000000 8.229316 -1.668957 9.555672 4.482998 -1.745443 -3.327930 -6.108377 0.779877 10.463922 17.366858 -8.282821 -17.853045 0.000000 0.000000 0.000000 -16.891521 -13.513036 2.834708 -40.531608 -16.359296 0.709240 -62.778169 -77.693284 52.452961 0.000000 0.000000 0.000000 14.636320 -2.761343 -0.623620 55.724983 0.138668 -5.537137 5.809886 45.409717 5.905334 0.000000 0.000000 0.000000 
0.005018 0.935960 -0.019056 2.342077 14.715629 12.487990 3.446423 -0.717859 -8.017312 -8.272728 0.546217 0.845148 6.127673 15.071713 10.048465 0.000000 0.000000 0.000000 -6.413664 0.440030 -22.869639 -4.505336 1.237103 13.560160 8.529949 17.184590 5.902873 0.000000 0.000000 0.000000 9.129123 -2.194769 11.823741 4.165781 -1.611841 -3.370138 -5.373837 -1.857704 11.117192 16.096914 -7.145715 -20.451712 0.000000 0.000000 0.000000 -17.806920 -16.382188 5.552908 -38.998559 -21.242318 1.808859 -34.441645 -76.497255 29.564969 0.000000 0.000000 0.000000 13.104397 -1.925015 -0.940070 55.262231 2.083367 -4.679962 8.442132 46.683682 6.613593 0.000000 0.000000 0.000000 
0.007001 0.936400 -0.027192 2.802798 11.999366 13.738040 1.960998 -0.804089 -9.087196 -7.788275 0.546957 -0.046089 7.310370 16.968201 11.073194 0.000000 0.000000 0.000000 -6.588541 0.563420 -24.838737 -5.855655 1.562574 12.724330 9.813538 18.995433 7.256524 0.000000 0.000000 0.000000 8.827761 -2.755034 15.868884 6.026661 -2.311771 -4.383405 -6.360853 -3.055533 12.122600 14.846505 -6.367729 -21.703831 0.000000 0.000000 0.000000 -15.966499 -20.944032 8.725119 -37.123584 -29.154953 3.674141 -4.859641 -68.732855 6.158771 0.000000 0.000000 0.000000 12.849397 -0.541545 -0.656804 55.903898 3.614986 -4.145087 9.298597 49.294197 7.070447 0.000000 0.000000 0.000000 
0.009204 0.935427 -0.035252 2.901487 8.999018 15.220658 0.887282 -1.028096 -11.317032 -7.366016 0.591035 0.427254 8.937971 19.390246 11.730465 0.000000 0.000000 0.000000 -6.506328 0.806812 -27.428271 -6.993214 1.819492 12.174726 11.245015 20.984745 8.640787 0.000000 0.000000 0.000000 9.000176 -3.278476 19.184561 5.999938 -2.254186 -4.839784 -6.596163 -6.205630 12.879003 13.049130 -5.713163 -22.468558 0.000000 0.000000 0.000000 -14.319783 -24.210218 11.624002 -33.575113 -35.837652 4.658529 8.685729 -58.230957 -1.484384 0.000000 0.000000 0.000000 14.482764 1.188149 -0.816018 54.769881 6.447405 -2.948149 10.429980 49.884853 6.791492 0.000000 0.000000 0.000000 
0.011659 0.933926 -0.042953 3.111318 5.886113 16.808522 0.422053 -1.224217 -13.260848 -8.173042 0.710943 0.126721 10.565691 21.738749 12.706194 0.000000 0.000000 0.000000 -6.137665 1.180457 -30.206340 -8.831316 2.199408 11.711371 12.764893 23.056169 10.022333 0.000000 0.000000 0.000000 8.423894 -3.574558 22.737708 7.131796 -2.692107 -5.111394 -7.528839 -7.978655 12.811732 11.574795 -5.232621 -22.399542 0.000000 0.000000 0.000000 -10.720722 -28.309159 13.777034 -29.571658 -42.593366 5.556592 17.301840 -44.099416 -4.374649 0.000000 0.000000 0.000000 16.699944 3.954932 -0.403176 54.517909 8.197640 -2.011709 8.472788 50.340509 5.302997 0.000000 0.000000 0.000000 
0.014336 0.932249 -0.049672 3.145167 2.780098 18.419965 -0.070503 -1.428901 -15.336613 -8.520557 0.804919 -0.001126 12.292061 24.123908 13.682326 0.000000 0.000000 0.000000 -6.329410 1.506667 -32.788499 -9.312312 2.236436 10.913708 14.347449 24.943272 11.672060 0.000000 0.000000 0.000000 8.276884 -3.863713 26.103838 7.675340 -2.872562 -5.366517 -8.404020 -9.388770 12.902629 10.060615 -4.596804 -23.113549 0.000000 0.000000 0.000000 -8.475551 -31.179742 15.277915 -22.378506 -47.071744 4.436000 21.326937 -34.441897 -4.565102 0.000000 0.000000 0.000000 18.310490 5.929462 -0.399402 54.573983 10.127152 -0.937006 8.075718 51.547645 4.655075 0.000000 0.000000 0.000000 
0.017095 0.929225 -0.054509 3.480077 0.006511 19.855887 -0.349457 -1.629205 -17.635305 -9.639926 1.018974 0.712379 13.935163 26.344240 14.362375 0.000000 0.000000 0.000000 -6.721378 1.801035 -35.064933 -9.982850 2.309158 10.306431 15.561187 26.728356 12.569860 0.000000 0.000000 0.000000 8.034255 -3.965429 28.956084 7.897853 -2.933374 -5.500487 -9.231824 -10.398372 13.332030 9.408963 -4.222873 -24.945244 0.000000 0.000000 0.000000 -4.965995 -33.700511 15.771896 -15.011383 -50.586674 2.679184 24.090613 -26.120334 -4.081819 0.000000 0.000000 0.000000 18.439778 8.406527 0.202638 55.388262 11.555152 -0.184466 5.769895 52.867046 3.182898 0.000000 0.000000 0.000000 
0.019627 0.927661 -0.056948 3.585694 -2.188948 21.297504 -0.477024 -1.770680 -19.649394 -10.353568 1.181367 1.095758 15.235971 27.998783 15.323793 0.000000 0.000000 0.000000 -7.110712 2.059087 -36.748816 -10.166863 2.196564 9.162881 16.634472 27.912911 13.744189 0.000000 0.000000 0.000000 8.420708 -4.253146 31.686617 8.562686 -3.186206 -5.316050 -10.330166 -11.079384 12.640435 7.879978 -3.534783 -25.262196 0.000000 0.000000 0.000000 -3.476786 -36.011014 16.719769 -7.023282 -51.552705 -0.126265 25.191080 -20.237088 -3.322262 0.000000 0.000000 0.000000 18.518690 9.713013 0.355209 55.739206 11.475777 -0.017899 5.330666 54.705278 2.637919 0.000000 0.000000 0.000000 
0.021912 0.925822 -0.057027 3.709908 -4.557684 22.827724 -0.550824 -1.825784 -21.098705 -11.242309 1.327122 0.539341 16.561476 29.556783 16.422689 0.000000 0.000000 0.000000 -7.571296 2.376509 -38.759679 -10.282155 2.142343 8.606927 17.676787 29.195731 14.766756 0.000000 0.000000 0.000000 8.294074 -4.178113 33.638280 9.042419 -3.363731 -5.084449 -11.059259 -11.986859 12.344350 7.314175 -3.332953 -25.992087 0.000000 0.000000 0.000000 -1.224749 -37.165528 16.715414 -1.279375 -51.253585 -2.040711 26.472228 -15.367271 -2.628220 0.000000 0.000000 0.000000 19.007268 12.173544 0.984587 55.743550 12.279721 0.576334 3.254623 55.735471 1.163301 0.000000 0.000000 0.000000 
0.023922 0.924811 -0.055371 3.410309 -6.160288 23.818335 -0.353598 -1.814662 -22.176399 -11.632596 1.437516 0.650180 17.596830 30.749058 17.161492 0.000000 0.000000 0.000000 -7.478477 2.708010 -39.667966 -10.414212 2.040046 7.737225 18.465145 30.062903 15.590506 0.000000 0.000000 0.000000 8.268927 -4.106897 34.791288 9.837200 -3.762816 -3.936162 -11.571115 -12.371780 11.303171 6.309103 -3.018503 -24.939812 0.000000 0.000000 0.000000 0.147271 -37.843846 16.669998 2.540658 -51.041065 -3.318947 26.262311 -11.585932 -1.892169 0.000000 0.000000 0.000000 19.925158 13.286499 1.137233 55.179742 11.964798 0.705200 2.154444 58.060375 0.329991 0.000000 0.000000 0.000000 
0.025536 0.924239 -0.052697 2.987617 -7.228657 24.461587 -0.240350 -1.756083 -22.235492 -11.562784 1.408764 -0.130225 18.249157 31.484842 17.542601 0.000000 0.000000 0.000000 -7.128764 3.006132 -40.092825 -10.614353 1.978326 7.090973 19.021228 30.684739 16.142650 0.000000 0.000000 0.000000 8.158370 -4.015566 35.818805 10.065844 -3.819450 -4.031463 -11.508349 -12.172017 10.992558 6.352294 -3.117761 -24.240618 0.000000 0.000000 0.000000 0.961527 -38.175492 16.557360 3.749939 -50.368511 -3.660457 25.426688 -10.064074 -1.550539 0.000000 0.000000 0.000000 20.713260 14.150192 1.392803 54.996944 12.092059 0.921187 1.286818 59.313280 -0.240059 0.000000 0.000000 0.000000 
0.026893 0.924438 -0.049652 2.715924 -7.470310 24.841754 0.090016 -1.691087 -22.092521 -11.886865 1.414958 -0.745872 18.351209 31.548162 17.799210 0.000000 0.000000 0.000000 -6.827932 3.182788 -40.700382 -10.888321 2.115215 7.714937 19.100424 30.821643 16.224027 0.000000 0.000000 0.000000 8.135312 -3.995409 36.006822 10.141510 -3.929426 -3.213385 -11.201935 -12.043495 10.773630 6.231820 -2.987540 -24.803049 0.000000 0.000000 0.000000 2.592745 -37.951699 15.752075 3.057593 -50.662239 -3.289314 25.931963 -9.624965 -1.487901 0.000000 0.000000 0.000000 20.011981 13.944937 1.376553 55.653620 12.655795 1.096935 0.458137 60.311032 -0.771740 0.000000 0.000000 0.000000 
0.028035 0.925843 -0.046273 2.523405 -7.413905 24.714653 -0.085346 -1.683464 -21.576505 -11.402527 1.337541 -0.972199 18.265120 31.353171 18.072936 0.000000 0.000000 0.000000 -6.976002 3.087474 -40.083755 -10.320056 1.962822 7.317668 19.177486 30.623156 16.490044 0.000000 0.000000 0.000000 8.405752 -4.075662 35.644800 9.856525 -3.793190 -3.524848 -10.923958 -11.866951 11.295325 6.565434 -3.122894 -25.202232 0.000000 0.000000 0.000000 1.785751 -37.302735 15.758646 0.053149 -51.103289 -2.222279 25.734865 -11.600092 -1.839398 0.000000 0.000000 0.000000 20.229863 13.780200 1.258335 55.837079 11.896595 0.733076 1.978897 60.692738 0.061493 0.000000 0.000000 0.000000 
0.029110 0.926306 -0.042690 2.399611 -7.257024 24.493686 0.031532 -1.644097 -21.093162 -11.523174 1.348782 -0.972805 18.148314 31.198634 18.067653 0.000000 0.000000 0.000000 -7.086215 3.007092 -39.729381 -9.935765 1.942448 7.619690 19.020295 30.557377 16.238861 0.000000 0.000000 0.000000 8.484359 -4.078158 35.068198 9.416873 -3.676561 -3.046411 -10.682055 -11.200511 11.300271 7.217134 -3.406484 -24.796504 0.000000 0.000000 0.000000 0.109364 -37.073933 16.241961 -4.791810 -50.996064 -0.546635 26.158424 -15.250533 -2.538525 0.000000 0.000000 0.000000 19.925315 13.042676 1.147308 56.257182 11.377719 0.390688 2.767750 60.842444 0.680120 0.000000 0.000000 0.000000 
